<svg width="64" height="64" viewBox="0 0 64 64" fill="none" xmlns="http://www.w3.org/2000/svg" role="img" aria-label="Sprout">
  
  <path d="M32 58 C32 47 32 42 32 36" stroke="#3D9A41" stroke-width="5" stroke-linecap="round"></path>
  
  <g transform="rotate(-40 32 40)">
    <path d="M32 40 C24.5 36 21 27.5 32 19 C43 27.5 39.5 36 32 40 Z" fill="#4CAF50"></path>
    <path d="M32 40 C30 33 30 27 32 21" stroke="#3D9A41" stroke-width="2" stroke-linecap="round" opacity="0.55"></path>
  </g>
  
  <g transform="rotate(40 32 40)">
    <path d="M32 40 C24.5 36 21 27.5 32 19 C43 27.5 39.5 36 32 40 Z" fill="#A8C686"></path>
    <path d="M32 40 C30 33 30 27 32 21" stroke="#7A9E55" stroke-width="2" stroke-linecap="round" opacity="0.6"></path>
  </g>
</svg>